<!DOCTYPE svg PUBLIC "-//W3C//DTD SVG 1.1//EN" "http://www.w3.org/Graphics/SVG/1.1/DTD/svg11.dtd">
<!-- Uploaded to: SVG Repo, www.svgrepo.com, Transformed by: SVG Repo Mixer Tools -->
<svg fill="#3e3c64" width="800px" height="800px" viewBox="-3 0 32 32" version="1.1" xmlns="http://www.w3.org/2000/svg">
<g id="SVGRepo_bgCarrier" stroke-width="0"/>
<g id="SVGRepo_tracerCarrier" stroke-linecap="round" stroke-linejoin="round"/>
<g id="SVGRepo_iconCarrier"> <title>balance</title> <path d="M25.76 14.92c0-0.040-0.040-0.2-0.080-0.32v0l-3.48-7.32c-0.080-0.24-0.36-0.44-0.64-0.44h-7.88v-1.8c0-0.48-0.36-0.84-0.84-0.84s-0.84 0.32-0.84 0.76v1.84h-7.76c-0.24 0-0.52 0.24-0.64 0.48l-3.52 7.28c-0.040 0.12-0.080 0.32-0.080 0.32v0c0 2.4 1.92 4.32 4.32 4.32s4.32-1.92 4.32-4.32v0c0-0.040 0-0.2-0.080-0.32v0l-2.92-6.12h6.36v17.72h-6.76c-0.48 0-0.84 0.36-0.84 0.84s0.36 0.84 0.84 0.84h15.2c0.48 0 0.84-0.36 0.84-0.84s-0.36-0.84-0.84-0.84h-6.76v-17.72h6.36l-2.92 6.12c-0.080 0.12-0.080 0.32-0.080 0.32v0c0 2.4 1.92 4.32 4.32 4.32 2.4 0.040 4.4-1.88 4.4-4.28v0zM4.32 9.56l2.16 4.52h-4.32l2.16-4.52zM4.32 17.56c-1.16 0-2.16-0.76-2.52-1.8h5c-0.32 1.040-1.32 1.8-2.48 1.8zM23.6 14.080h-4.36l2.16-4.52 2.2 4.52zM21.4 17.56c-1.16 0-2.16-0.76-2.52-1.8h5c-0.28 1.040-1.32 1.8-2.48 1.8z"/> </g>
</svg>